# xmcd CD database file
#
# Track frame offsets:
#	150
#	10446
#	31037
#
# Disc length: 613 seconds
#
# Revision: 0
# Processed by: cddbd v1.5.2PL0 Copyright (c) Steve Scherf et al.
# Submitted via: CDex 1.51
#
DISCID=17026303
DTITLE=Bonnie 'Prince' Billy - Cold and wet
DYEAR=2006
DGENRE=Country
TTITLE0=Cold and wet
TTITLE1=The way
TTITLE2=Buried treasure
EXTD=YEAR: 2006
EXTT0=
EXTT1=
EXTT2=
PLAYORDER=
